<svg xmlns="http://www.w3.org/2000/svg" height="24" viewBox="0 -960 960 960" width="24"><path d="M212.309-100.001q-29.923 0-51.115-21.193-21.193-21.192-21.193-51.115v-447.922q-17.615-9.077-28.807-25.808-11.193-16.731-11.193-38.577v-103.075q0-29.923 21.193-51.115 21.192-21.193 51.115-21.193h615.382q29.923 0 51.115 21.193 21.193 21.192 21.193 51.115v103.075q0 21.846-11.193 38.577-11.192 16.731-28.807 25.808v447.922q0 29.923-21.193 51.115-21.192 21.193-51.115 21.193H212.309ZM200-612.309v438.077q0 6.154 4.423 10.193Q208.847-160 215.386-160h532.305q5.385 0 8.847-3.462 3.462-3.462 3.462-8.847v-440H200Zm-27.691-59.998h615.382q5.385 0 8.847-3.462 3.462-3.462 3.462-8.847v-103.075q0-5.385-3.462-8.847-3.462-3.462-8.847-3.462H172.309q-5.385 0-8.847 3.462-3.462 3.462-3.462 8.847v103.075q0 5.385 3.462 8.847 3.462 3.462 8.847 3.462Zm195.384 249.613h224.614V-480H367.693v57.306ZM480-386.154Z"/></svg>